<svg viewBox="0 0 500 500" xmlns="http://www.w3.org/2000/svg"><path d="m233.5 115.74a127.86 127.86 0 0 0 -5.81 17.37 122.29 122.29 0 0 1 16.83-8.9z" fill="#231815"/><path d="m295.5 266a66.74 66.74 0 0 1 7.39 15.58 6.36 6.36 0 0 0 5.3 5.44 46.89 46.89 0 0 1 15.27 6.28 43.64 43.64 0 0 1 20.54 34.35 44.11 44.11 0 0 1 -.14 6.61 45.38 45.38 0 0 1 -6.43 19.39 43.63 43.63 0 0 1 -21.61 18.17c-8.12 3.11-16.26 2.95-24.72 2.95h-115.44c-5.49 0-11 .05-16.46 0a54.77 54.77 0 0 1 -43.91-87.49c11.19-15.07 29-22.65 47.07-21.71a58.1 58.1 0 0 1 14 2.49 6.7 6.7 0 0 0 2.83.23 8.3 8.3 0 0 0 5.64-3.68 67.14 67.14 0 0 1 58.56-29.16 62.92 62.92 0 0 1 8.6 1.06 67.21 67.21 0 0 1 43.51 29.49z" fill="#fff"/><path d="m409.51 283.83q-1 2.33-2.1 4.6l-2.41-1.16-8.47-11-.56-1.48c1.69-.62 3.37-1.27 5-2 6.89-2.79 10.74 5.95 8.54 11.04z" fill="#231815"/><path d="m405 287.27 2.38 1.16a132.51 132.51 0 0 1 -49.78 55.07 57.19 57.19 0 0 0 1.44-14.42c0-1.47-.14-2.93-.29-4.38a119.71 119.71 0 0 0 28.89-31.62 126.8 126.8 0 0 0 17.36-5.81z" fill="#231815"/><path d="m396.56 276.26 8.47 11a126.8 126.8 0 0 1 -17.36 5.81 123.82 123.82 0 0 0 8.89-16.81z" fill="#231815"/><path d="m373.24 183.2a6.73 6.73 0 0 1 -4.65-6.31c.63-.25 1.26-.5 1.89-.73a10.73 10.73 0 0 1 2-.67c5.59-.67-1.95 7 1.38 7.91z" fill="#231815"/><path d="m372.51 175.49a10.73 10.73 0 0 0 -2 .67c-.63.23-1.26.48-1.89.73-.2-4.58 3.52-9.51 9.29-8 9.27 2.66 5.31 17.13-4 14.47-3.35-.86 4.19-8.54-1.4-7.87z" fill="#231815"/><path d="m365.41 178.24c1-.48 2.11-.92 3.18-1.35a6.73 6.73 0 0 0 4.65 6.31 53.23 53.23 0 0 1 -9.75-4c.63-.33 1.26-.66 1.92-.96z" fill="#231815"/><path d="m359.07 329.08a57.19 57.19 0 0 1 -1.44 14.42q-4.56 2.81-9.35 5.24a51.49 51.49 0 0 0 3.31-18.22c0-.26 0-.52 0-.79 2.46-1.58 4.87-3.26 7.2-5 .14 1.42.21 2.88.28 4.35z" fill="#231815"/><path d="m358.78 324.7c-2.33 1.77-4.74 3.45-7.2 5a51.61 51.61 0 0 0 -13.07-33.6q5 .63 10 .89a59.22 59.22 0 0 1 10.27 27.71z" fill="#231815"/><path d="m387.67 293.08a119.71 119.71 0 0 1 -28.89 31.62 59.22 59.22 0 0 0 -10.29-27.7 130.32 130.32 0 0 0 39.18-3.92z" fill="#f4ec90"/><path d="m351.59 330.52a51.49 51.49 0 0 1 -3.31 18.22q-5.29 2.7-10.83 4.91a45.38 45.38 0 0 0 6.43-19.39q3.94-2.12 7.7-4.53c0 .27.01.53.01.79z" fill="#231815"/><path d="m338.51 296.13a51.61 51.61 0 0 1 13.07 33.6q-3.75 2.42-7.7 4.53a44.11 44.11 0 0 0 .14-6.61 43.64 43.64 0 0 0 -20.56-34.33 132.46 132.46 0 0 0 15.05 2.81z" fill="#231815"/><path d="m345.68 146.88c0 1.42-1.08 3.48-1.57 4.74-.76 1.94-1.6 3.85-2.55 5.71a55.79 55.79 0 0 1 -2.62-5.71 15.57 15.57 0 0 1 -1.17-3.36c-.13-.46-.26-.92-.4-1.38z" fill="#231815"/><path d="m338.94 151.62a55.79 55.79 0 0 0 2.62 5.71c-.62 1.22-1.28 2.42-2 3.58a53.79 53.79 0 0 1 -14.61 15.19 43.92 43.92 0 0 1 -5.27 3.15 56.12 56.12 0 0 0 -7.76-3.33 11.34 11.34 0 0 0 -2.73-.83v4.16c-1.33 3.38-1.11 4.7.68 3.95 1.38 0 3.41-1.11 4.71-1.63 1.74-.7 3.44-1.46 5.1-2.32a53.7 53.7 0 0 1 11.11 7.75 50.46 50.46 0 0 1 10.71 14c-1.54 2.8-3.32 6.16-3.73 9.17-.35 2.53-2.14 1.38 3.76 1.38 4.85 0 4.52 1 3.54-2.06a59.47 59.47 0 0 0 -2.26-5.77c-.4-.92-.84-1.83-1.31-2.72l.59-1.07a52.57 52.57 0 0 1 21.4-20.79 53.23 53.23 0 0 0 9.75 4l.65.2c9.3 2.66 13.26-11.81 4-14.47a10.72 10.72 0 0 1 7.7 11.75c-.71 5.28-4.46 7.67-9.08 9.27-9.45 3.28-17.06 9.32-21.79 18.22-2 3.72-2.42 8.45-5.21 11.67a10.65 10.65 0 0 1 -12.16 2.71c-5-2.12-5.66-6.52-7.43-11a36.24 36.24 0 0 0 -5.87-9.89 37.73 37.73 0 0 0 -10.21-8.53c-3.48-2-7.46-2.6-10.91-4.5a10.74 10.74 0 0 1 -5.19-12.22c1.24-4.53 4.7-6.46 8.83-7.84a37.27 37.27 0 0 0 19.65-14.61c4.45-6.8 5.18-19.28 15.76-18.87 9.9.39 10.56 12.28 14.87 18.87a37.06 37.06 0 0 0 21 15c-5.77-1.55-9.49 3.38-9.29 8-1.07.43-2.14.87-3.18 1.35-.66.3-1.29.63-1.92 1a52.55 52.55 0 0 1 -21.93-21.87c.95-1.86 1.79-3.77 2.55-5.71.49-1.26 1.58-3.32 1.57-4.74h-8.31c.14.46.27.92.4 1.38a15.57 15.57 0 0 0 1.2 3.31z" fill="#231815"/><path d="m345.07 209.55c1 3.07 1.31 2.06-3.54 2.06-5.9 0-4.11 1.15-3.76-1.38.41-3 2.19-6.37 3.73-9.17.47.89.91 1.8 1.31 2.72a59.47 59.47 0 0 1 2.26 5.77z" fill="#231815"/><path d="m341.56 157.33a52.55 52.55 0 0 0 21.93 21.87 52.57 52.57 0 0 0 -21.4 20.8l-.59 1.07a50.46 50.46 0 0 0 -10.71-14 53.7 53.7 0 0 0 -11.13-7.79 43.92 43.92 0 0 0 5.27-3.15 53.79 53.79 0 0 0 14.61-15.19c.74-1.19 1.4-2.39 2.02-3.61z" fill="#fff"/><g fill="#231815"><path d="m316.72 275.76a118.78 118.78 0 0 0 12.69 3.55 60.31 60.31 0 0 1 19.08 17.69q-5-.26-10-.89a52 52 0 0 0 -20.93-14.23 7.13 7.13 0 0 0 -.16-4.09c-.2-.67-.4-1.35-.68-2.03z"/><path d="m329.41 279.31a119.09 119.09 0 0 0 66.59-4.53l.56 1.48a123.82 123.82 0 0 1 -8.89 16.82 130.32 130.32 0 0 1 -39.18 3.92 60.31 60.31 0 0 0 -19.08-17.69z"/><path d="m329.41 279.31a118.78 118.78 0 0 1 -12.69-3.55c-.26-.75-.53-1.49-.82-2.24a59 59 0 0 1 13.51 5.79z"/><path d="m311.9 175.92a56.12 56.12 0 0 1 7.76 3.33c-1.66.86-3.36 1.62-5.1 2.32-1.3.52-3.33 1.67-4.71 1.63-1.79.75-2-.57-.68-3.95v-4.16a11.34 11.34 0 0 1 2.73.83z"/><path d="m252.62 221.48c.66.1 1.32.19 2 .31 28.13 4.95 51.25 25.4 61.29 51.73-1.22-.35-2.46-.67-3.72-.95a7.75 7.75 0 0 0 -3.63.05c-.43-.18-.84-.38-1.26-.56a73.85 73.85 0 0 0 -49.54-41.94q-2.76-4.23-5.14-8.64z"/><path d="m308.55 272.62a7.75 7.75 0 0 1 3.63-.05c1.26.28 2.5.6 3.72.95.29.75.56 1.49.82 2.24q-4.14-1.41-8.17-3.14z"/><path d="m307.65 272.92a6.78 6.78 0 0 1 .9-.3q4 1.72 8.17 3.14c.24.68.48 1.36.7 2.05a7.13 7.13 0 0 1 .16 4.09 51 51 0 0 0 -7.4-2.09 69.85 69.85 0 0 0 -2.53-6.89z"/><path d="m307.29 272.06c.42.18.83.38 1.26.56a6.78 6.78 0 0 0 -.9.3c-.12-.29-.23-.58-.36-.86z"/><path d="m302.89 281.6a8.3 8.3 0 0 1 4.76-8.68 69.85 69.85 0 0 1 2.53 6.89 51 51 0 0 1 7.4 2.09c-1.68 6.07-12.18 7.55-14.63-.1z"/><path d="m303 281.8c2.45 7.65 12.95 6.17 14.63.1a52 52 0 0 1 20.93 14.23 132.46 132.46 0 0 1 -15.05-2.81 46.89 46.89 0 0 0 -15.32-6.32 6.36 6.36 0 0 1 -5.3-5.44z"/><path d="m307.29 272.06c.13.28.24.57.36.86a8.3 8.3 0 0 0 -4.76 8.68 66.74 66.74 0 0 0 -7.39-15.6 115.94 115.94 0 0 0 11.79 6.06z"/><path d="m257.75 230.12a73.85 73.85 0 0 1 49.54 41.94 115.94 115.94 0 0 1 -11.79-6 67.19 67.19 0 0 0 -29.95-25.32 116.07 116.07 0 0 1 -7.8-10.62z"/><path d="m237 111.26c5.13-2.21 13.87 1.63 11 8.47-.7 1.67-1.35 3.35-2 5l-1.47-.55-11-8.47-1.14-2.38q2.24-1.07 4.61-2.07z"/><path d="m244.52 124.22 1.47.55a118.4 118.4 0 0 0 6.63 96.71 82.37 82.37 0 0 0 -17.06-.8 132.39 132.39 0 0 1 -7.87-87.56 122.18 122.18 0 0 1 16.83-8.9z"/><path d="m239.76 227.91a73.57 73.57 0 0 1 18 2.21 116.07 116.07 0 0 0 7.8 10.58 66.9 66.9 0 0 0 -13.56-4.19 62.92 62.92 0 0 0 -8.6-1.06q-2.28-3.7-4.31-7.53z"/><path d="m178.38 260.83a73.59 73.59 0 0 1 60.72-32.91q2 3.83 4.31 7.53a67.14 67.14 0 0 0 -58.56 29.16 8.3 8.3 0 0 1 -5.64 3.68c-.88-2.61-1.67-5.26-2.36-7.93.51.15 1.02.3 1.53.47z"/><path d="m235.56 220.68a82.37 82.37 0 0 1 17.06.8q2.37 4.41 5.13 8.64a73.57 73.57 0 0 0 -18-2.21h-.66c-1.25-2.37-2.42-4.79-3.53-7.23z"/><path d="m235.56 220.68c1.11 2.44 2.28 4.86 3.54 7.24a73.59 73.59 0 0 0 -60.72 32.91c-.51-.17-1-.32-1.53-.47q-.63-2.42-1.16-4.86l4.68-1.91c-1.65-.5-3.3-.94-5-1.33a82.48 82.48 0 0 1 60.19-31.58z"/><path d="m232.36 113.37 1.14 2.38a126.92 126.92 0 0 0 -5.81 17.37 116.89 116.89 0 0 0 -50.72 68 114.67 114.67 0 0 0 -1.95 51 70.81 70.81 0 0 0 -15.76-1.74 131.16 131.16 0 0 1 73.1-137.07z"/></g><path d="m235.56 220.68a82.48 82.48 0 0 0 -60.16 31.58l-.38-.08a114.67 114.67 0 0 1 1.95-51 116.89 116.89 0 0 1 50.72-68 132.39 132.39 0 0 0 7.87 87.5z" fill="#f4ec90"/><path d="m176.85 260.36c.69 2.67 1.48 5.32 2.36 7.93a6.7 6.7 0 0 1 -2.83-.23 58.1 58.1 0 0 0 -14-2.49q-1-3.84-1.82-7.74a62.23 62.23 0 0 1 16.29 2.53z" fill="#231815"/><path d="m175.4 252.26c1.67.39 3.32.83 5 1.33l-4.68 1.91c-.21-1-.4-1.9-.58-2.85z" fill="#231815"/><path d="m175.11 252.65c.18 1 .37 1.9.58 2.85l-3.79 1.5q1.55-2.23 3.21-4.35z" fill="#231815"/><path d="m175.11 252.65-.09-.47.38.08z" fill="#231815"/><path d="m175.11 252.65q-1.67 2.13-3.21 4.39l3.79-1.54q.52 2.44 1.16 4.86a62.23 62.23 0 0 0 -16.31-2.53c-.49-2.45-.92-4.92-1.28-7.39a70.81 70.81 0 0 1 15.74 1.74z" fill="#231815"/><path d="m97 320a62.23 62.23 0 0 1 62.2-62.2h1.34q.79 3.9 1.82 7.74c-18-.94-35.88 6.64-47.07 21.71a54.77 54.77 0 0 0 43.91 87.49c5.49.05 11 0 16.46 0h115.46c8.46 0 16.6.16 24.72-2.95a43.63 43.63 0 0 0 21.61-18.17q5.54-2.2 10.83-4.91a51.75 51.75 0 0 1 -48.44 33.53h-140.64a62.23 62.23 0 0 1 -62.2-62.24z" fill="#231815"/><path d="m97 320a62.23 62.23 0 0 0 62.24 62.23h140.6a51.75 51.75 0 0 0 48.44-33.53q4.79-2.43 9.35-5.24a60.29 60.29 0 0 1 -39.69 43.45c-9.48 3.1-19.19 2.82-29 2.82h-123.43c-12.67 0-24.76-1.39-36.45-6.86a69.76 69.76 0 0 1 -38.58-51.19c-3.67-22.81 3.88-46.46 20.82-62.36a70.15 70.15 0 0 1 48-18.92c.36 2.47.79 4.94 1.28 7.39-.45 0-.89 0-1.34 0a62.23 62.23 0 0 0 -62.24 62.21z" fill="#231815"/></svg>